<svg width="24" height="24" viewBox="0 0 24 24" fill="none" xmlns="http://www.w3.org/2000/svg">
<g id="basil:add-outline">
<path id="Vector" d="M6.68066 12.5545C6.68066 12.3426 6.76484 12.1393 6.91468 11.9895C7.06452 11.8397 7.26775 11.7555 7.47965 11.7555H11.2008V8.03434C11.2008 7.82243 11.285 7.61921 11.4348 7.46937C11.5846 7.31953 11.7879 7.23535 11.9998 7.23535C12.2117 7.23535 12.4149 7.31953 12.5647 7.46937C12.7146 7.61921 12.7988 7.82243 12.7988 8.03434V11.7555H16.5199C16.7318 11.7555 16.935 11.8397 17.0849 11.9895C17.2347 12.1393 17.3189 12.3426 17.3189 12.5545C17.3189 12.7664 17.2347 12.9696 17.0849 13.1194C16.935 13.2693 16.7318 13.3535 16.5199 13.3535H12.7988V17.0746C12.7988 17.2865 12.7146 17.4897 12.5647 17.6396C12.4149 17.7894 12.2117 17.8736 11.9998 17.8736C11.7879 17.8736 11.5846 17.7894 11.4348 17.6396C11.285 17.4897 11.2008 17.2865 11.2008 17.0746V13.3535H7.47965C7.26775 13.3535 7.06452 13.2693 6.91468 13.1194C6.76484 12.9696 6.68066 12.7664 6.68066 12.5545Z" fill="black"/>
<path id="Vector_2" fill-rule="evenodd" clip-rule="evenodd" d="M7.01037 3.78606C10.3261 3.41848 13.6724 3.41848 16.9881 3.78606C18.9344 4.00338 20.5058 5.53637 20.7338 7.49335C21.1279 10.8566 21.1279 14.2538 20.7338 17.617C20.5047 19.574 18.9334 21.1059 16.9881 21.3243C13.6724 21.6919 10.3261 21.6919 7.01037 21.3243C5.06405 21.1059 3.49271 19.574 3.26473 17.617C2.87139 14.2539 2.87139 10.8565 3.26473 7.49335C3.49271 5.53637 5.06511 4.00338 7.01037 3.78606ZM16.8113 5.37338C13.613 5.01888 10.3854 5.01888 7.18722 5.37338C6.59516 5.43906 6.04254 5.70243 5.61862 6.12093C5.19471 6.53943 4.92427 7.08862 4.85098 7.67978C4.4721 10.9194 4.4721 14.1921 4.85098 17.4317C4.92449 18.0226 5.19503 18.5716 5.61893 18.9899C6.04282 19.4082 6.59532 19.6714 7.18722 19.737C10.3587 20.0907 13.6398 20.0907 16.8113 19.737C17.403 19.6712 17.9552 19.4078 18.3789 18.9896C18.8026 18.5713 19.073 18.0225 19.1464 17.4317C19.5253 14.1921 19.5253 10.9194 19.1464 7.67978C19.0728 7.08917 18.8023 6.54059 18.3786 6.12253C17.9549 5.70448 17.4028 5.44132 16.8113 5.37551" fill="black"/>
</g>
</svg>
