<svg xmlns="http://www.w3.org/2000/svg" width="24" height="24" viewBox="0 0 24 24" fill="none" stroke="#494F5A" stroke-width="1.5" stroke-linecap="round" stroke-linejoin="round">
  <path d="M8 12.55H12.55M17.1 12.55H12.55M12.55 12.55V17.1M12.55 12.55V8" />
  <path d="M12.3 20.6C14.0077 20.6 15.5057 20.5355 16.721 20.4535C18.733 20.3176 20.2791 18.7276 20.4233 16.7161C20.5192 15.3791 20.6 13.8054 20.6 12.3C20.6 10.7805 20.5177 9.19155 20.4206 7.84646C20.2767 5.85252 18.7536 4.27442 16.759 4.13954C15.595 4.06082 14.1589 4 12.5 4C10.7442 4 9.18215 4.06814 7.91412 4.1535C5.8866 4.29 4.31894 5.8895 4.17438 7.91646C4.07952 9.24648 4 10.8068 4 12.3C4 13.8054 4.08083 15.3791 4.17671 16.7161C4.32095 18.7276 5.86695 20.3176 7.87901 20.4535C9.09428 20.5355 10.5923 20.6 12.3 20.6Z" />
</svg>
