<svg width="20" height="20" viewBox="0 0 20 20" fill="none" xmlns="http://www.w3.org/2000/svg">
<g id="Icon">
<path id="Vector" d="M3.33324 3.3335L16.6666 16.6668M13.7499 13.9634C12.6227 14.5706 11.3488 15 9.99991 15C7.0577 15 4.47187 12.9567 2.989 11.4825C2.59759 11.0934 2.40191 10.8988 2.27733 10.5169C2.18849 10.2446 2.18847 9.75563 2.27733 9.48328C2.40194 9.10139 2.59803 8.90637 2.99022 8.51655C3.73763 7.77367 4.76501 6.88649 5.97683 6.18913M16.2499 12.1947C16.5275 11.9506 16.7816 11.7104 17.0097 11.4837L17.0121 11.4812C17.4027 11.093 17.5985 10.8984 17.7228 10.5173C17.8117 10.245 17.8115 9.75586 17.7227 9.4835C17.5981 9.10172 17.4022 8.90662 17.0111 8.51775C15.5282 7.04357 12.9421 5.00016 9.99991 5.00016C9.71866 5.00016 9.44066 5.01883 9.16658 5.0539M11.1023 11.2502C10.8085 11.5095 10.4226 11.6668 9.99991 11.6668C9.07944 11.6668 8.33324 10.9206 8.33324 10.0002C8.33324 9.55058 8.51126 9.14273 8.80064 8.84294" stroke="#636A79" stroke-width="1.5" stroke-linecap="round" stroke-linejoin="round"/>
</g>
</svg>
