<svg width="260" height="260" viewBox="0 0 260 260" fill="none" xmlns="http://www.w3.org/2000/svg">
<g clip-path="url(#clip0_2344_7157)">
<path d="M151.26 121.229C156.12 107.49 167.639 90.2537 182.494 86.2568C190.415 84.096 199.986 84.7954 205.695 91.4028C209.443 95.6994 210.93 102.769 206.47 107.228C202.459 111.237 197.162 109.226 195.225 104.493C191.827 96.0616 192.627 85.982 195.338 77.5136C200.823 60.427 217.539 49.4356 235.143 49.1733C249.598 48.9609 249.636 26.4785 235.143 26.6908C211.817 27.0406 189.066 39.7181 178.196 60.7018C168.476 79.4371 164.703 114.685 186.067 127.55C207.432 140.414 232.932 122.029 231.557 98.2849C230.021 71.6807 202.159 58.8407 178.496 64.0741C154.633 69.3575 137.267 93.4137 129.583 115.284C124.748 129.023 146.475 134.831 151.26 121.267V121.229Z" fill="#FF50AA"/>
<path d="M37.017 48.324C53.009 50.8221 68.7761 57.1921 79.1959 70.0695C88.5413 81.623 92.1519 98.897 85.4428 112.536C79.0835 125.514 98.4738 136.917 104.883 123.915C109.829 113.652 111.911 102.244 110.911 90.896C109.91 79.5479 105.864 68.6803 99.1984 59.4403C85.9675 41.1546 65.103 30.0508 42.9765 26.6534C36.9795 25.7292 30.8826 28.1648 29.1459 34.4973C27.6842 39.8306 30.9575 47.3997 36.992 48.324H37.017Z" fill="#FF50AA"/>
<path d="M14.9281 219.103L66.6772 109.863C69.7354 103.33 74.7915 97.9375 81.1154 94.4644C87.4393 90.9913 94.7037 89.6174 101.86 90.541C118.939 92.8517 137.492 103.818 151.285 119.269C165.965 135.718 175.448 157.126 175.76 175.624C175.807 183.465 173.169 191.086 168.285 197.22C163.401 203.355 156.564 207.635 148.911 209.348L29.3084 237.052C26.9689 237.579 24.5281 237.439 22.2644 236.647C20.0008 235.855 18.0055 234.443 16.5061 232.571C15.0068 230.7 14.0638 228.445 13.7848 226.063C13.5057 223.682 13.9019 221.27 14.9281 219.103Z" fill="#FFC2E2"/>
<mask id="mask0_2344_7157" style="mask-type:luminance" maskUnits="userSpaceOnUse" x="13" y="90" width="163" height="148">
<path d="M14.9281 219.103L66.6772 109.863C69.7354 103.33 74.7915 97.9375 81.1154 94.4644C87.4393 90.9913 94.7037 89.6174 101.86 90.541C118.939 92.8517 137.492 103.818 151.285 119.269C165.965 135.718 175.448 157.126 175.76 175.624C175.807 183.465 173.169 191.086 168.285 197.22C163.401 203.355 156.564 207.635 148.911 209.348L29.3084 237.052C26.9689 237.579 24.5281 237.439 22.2644 236.647C20.0008 235.855 18.0055 234.443 16.5061 232.571C15.0068 230.7 14.0638 228.445 13.7848 226.063C13.5057 223.682 13.9019 221.27 14.9281 219.103Z" fill="white"/>
</mask>
<g mask="url(#mask0_2344_7157)">
<path d="M16.8521 204.439C27.0845 185.367 54.3334 185.117 71.987 192.374C95.3878 201.941 105.208 224.599 113.604 246.744C115.753 252.414 121.187 256.311 127.434 254.6C132.869 253.101 137.429 246.469 135.28 240.761C129.508 225.51 123.599 210.147 113.604 197.045C104.119 184.719 91.2848 175.383 76.6347 170.154C49.5732 160.274 12.1794 165.607 -2.56319 193.098C-9.39727 205.838 10.0055 217.217 16.8521 204.439Z" fill="#FF50AA"/>
<path d="M33.956 151.343C54.6457 129.411 87.7916 134.706 111.267 148.983C122.247 155.824 131.673 164.886 138.941 175.587C145.188 184.642 150.935 195.372 150.898 206.325C150.823 220.802 173.311 220.814 173.386 206.325C173.524 174.85 146.987 143.674 121.075 128.649C89.1284 110.126 45.2879 106.566 18.064 135.506C8.06897 146.023 24.011 161.96 33.956 151.406V151.343Z" fill="#FF50AA"/>
</g>
<path d="M201.872 181.058C212.104 181.345 220.513 187.191 225.148 196.171C231.095 207.7 248.486 197.52 242.552 186.004C238.627 178.573 232.786 172.328 225.632 167.915C218.479 163.503 210.275 161.085 201.872 160.911C188.904 160.549 188.916 180.696 201.872 181.058Z" fill="#FF94C7"/>
<path d="M127.459 46.8251C136.25 46.8251 143.376 39.7008 143.376 30.9126C143.376 22.1243 136.25 15 127.459 15C118.669 15 111.542 22.1243 111.542 30.9126C111.542 39.7008 118.669 46.8251 127.459 46.8251Z" fill="#FF94C7"/>
<path d="M29.5207 114.922C38.3115 114.922 45.4378 107.798 45.4378 99.0094C45.4378 90.2211 38.3115 83.0968 29.5207 83.0968C20.73 83.0968 13.6037 90.2211 13.6037 99.0094C13.6037 107.798 20.73 114.922 29.5207 114.922Z" fill="#E50394"/>
</g>
<defs>
<clipPath id="clip0_2344_7157">
<rect width="260" height="260" fill="white"/>
</clipPath>
</defs>
</svg>
