<svg width="24" height="24" viewBox="0 0 24 24" fill="none" xmlns="http://www.w3.org/2000/svg">
<g id="streamline:home-3">
<path id="Vector" d="M12.25 20.5V15.1154M21 11.6692C21.0013 11.4824 20.9637 11.2973 20.8895 11.1258C20.8154 10.9543 20.7063 10.8001 20.5692 10.6731L13.832 4.4591C12.9384 3.63489 11.5616 3.63489 10.668 4.4591L3.9308 10.6731C3.79379 10.8001 3.68474 10.9543 3.61058 11.1258C3.53641 11.2973 3.49877 11.4824 3.50003 11.6692V19.1538C3.50003 19.5109 3.64186 19.8533 3.89431 20.1057C4.14676 20.3582 4.48916 20.5 4.84618 20.5H19.6538C20.0108 20.5 20.3532 20.3582 20.6057 20.1057C20.8581 19.8533 21 19.5109 21 19.1538V11.6692Z" stroke="black" stroke-width="1.5" stroke-linecap="round" stroke-linejoin="round"/>
</g>
</svg>
