<svg xmlns="http://www.w3.org/2000/svg" width="24" height="25" viewBox="0 0 24 25" fill="none">
  <path d="M10.6875 5.91406C10.6875 6.26216 10.8258 6.596 11.0719 6.84214C11.3181 7.08828 11.6519 7.22656 12 7.22656C12.3481 7.22656 12.6819 7.08828 12.9281 6.84214C13.1742 6.596 13.3125 6.26216 13.3125 5.91406C13.3125 5.56597 13.1742 5.23213 12.9281 4.98598C12.6819 4.73984 12.3481 4.60156 12 4.60156C11.6519 4.60156 11.3181 4.73984 11.0719 4.98598C10.8258 5.23213 10.6875 5.56597 10.6875 5.91406ZM10.6875 12.4766C10.6875 12.8247 10.8258 13.1585 11.0719 13.4046C11.3181 13.6508 11.6519 13.7891 12 13.7891C12.3481 13.7891 12.6819 13.6508 12.9281 13.4046C13.1742 13.1585 13.3125 12.8247 13.3125 12.4766C13.3125 12.1285 13.1742 11.7946 12.9281 11.5485C12.6819 11.3023 12.3481 11.1641 12 11.1641C11.6519 11.1641 11.3181 11.3023 11.0719 11.5485C10.8258 11.7946 10.6875 12.1285 10.6875 12.4766ZM10.6875 19.0391C10.6875 19.3872 10.8258 19.721 11.0719 19.9671C11.3181 20.2133 11.6519 20.3516 12 20.3516C12.3481 20.3516 12.6819 20.2133 12.9281 19.9671C13.1742 19.721 13.3125 19.3872 13.3125 19.0391C13.3125 18.691 13.1742 18.3571 12.9281 18.111C12.6819 17.8648 12.3481 17.7266 12 17.7266C11.6519 17.7266 11.3181 17.8648 11.0719 18.111C10.8258 18.3571 10.6875 18.691 10.6875 19.0391Z" fill="black"/>
</svg>