<svg width="283" height="84" viewBox="0 0 283 84" fill="none" xmlns="http://www.w3.org/2000/svg">
<g clip-path="url(#clip0_2386_25364)">
<path d="M80.9022 13.8406L81.8379 18.7145C86.4111 14.8434 91.3703 12.9194 95.9551 12.9194C102.704 12.9194 108.365 18.0965 108.365 28.2292C108.365 43.3874 99.9084 57.5312 83.4754 57.5312C80.9958 57.5312 78.0483 57.0648 75.4167 56.5984L71.0307 77.6799H55.1824L68.668 13.8522H80.9256L80.9022 13.8406ZM77.7208 45.4513C78.9606 45.7661 80.2004 45.9177 81.2882 45.9177C88.7269 45.9177 92.2241 39.353 92.2241 31.2259C92.2241 27.3664 90.7504 25.3492 87.8848 25.3492C86.3292 25.3492 84.0134 25.8855 81.4519 27.1332L77.7325 45.4513H77.7208Z" fill="black"/>
<path d="M147.126 55.1175C142.623 56.4351 136.74 57.5894 130.681 57.5894C119.359 57.5894 110.131 53.9515 110.131 40.8921C110.131 26.5151 119.979 12.9077 137.43 12.9077C148.366 12.9077 153.477 18.7028 153.477 25.1276C153.477 35.5634 145.254 39.4346 136.178 39.4346C133.079 39.4346 129.745 38.9682 126.716 38.117C126.564 38.8865 126.482 39.5862 126.482 40.0526C126.482 43.7605 129.582 45.8477 134.857 45.8477C139.746 45.8477 144.085 44.7633 148.424 42.9093L147.102 55.1175H147.126ZM131.547 31.0043C137.126 31.0043 139.383 29.0687 139.383 26.0604C139.383 24.5096 138.377 23.122 135.582 23.122C131.313 23.122 128.365 26.76 127.675 30.7711C129.149 30.9227 130.541 31.0043 131.558 31.0043H131.547Z" fill="black"/>
<path d="M168.308 56.5868H152.799L161.255 13.8407H174.284L174.986 17.4786C179.793 15.0067 184.986 12.8379 190.495 12.8379C198.402 12.8379 202.285 18.563 200.811 26.0605L194.682 56.5985H179.092L184.671 28.5325C185.057 26.6785 184.823 24.8245 181.957 24.8245C180.016 24.8245 177.302 25.7573 174.121 27.2965L168.308 56.5985V56.5868Z" fill="black"/>
<path d="M240.192 55.1175C235.701 56.4351 229.806 57.5894 223.759 57.5894C212.437 57.5894 203.209 53.9515 203.209 40.8921C203.209 26.5151 213.057 12.9077 230.508 12.9077C241.444 12.9077 246.555 18.7028 246.555 25.1276C246.555 35.5634 238.333 39.4346 229.268 39.4346C226.169 39.4346 222.835 38.9682 219.806 38.117C219.654 38.8865 219.572 39.5862 219.572 40.0526C219.572 43.7605 222.671 45.8477 227.946 45.8477C232.835 45.8477 237.175 44.7633 241.514 42.9093L240.192 55.1175ZM224.601 31.0043C230.18 31.0043 232.438 29.0687 232.438 26.0604C232.438 24.5096 231.432 23.122 228.636 23.122C224.367 23.122 221.42 26.76 220.73 30.7711C222.204 30.9227 223.595 31.0043 224.601 31.0043Z" fill="black"/>
<path d="M280.053 28.7538C275.561 29.3718 271.058 30.7594 266.169 32.8465L261.362 56.575H245.853L254.309 13.8288H268.883L267.327 22.0259C272.906 15.846 276.789 13.6772 281.982 13.6772H282.988L280.041 28.7538H280.053Z" fill="black"/>
<path d="M0 70.8005C10.6435 83.1719 34.644 78.9859 47.8606 74.1353C48.0712 72.0948 49.2993 66.1714 49.6384 63.2913C36.4101 68.142 12.5032 73.2025 1.85969 60.8311C0.900603 65.3669 0 70.8122 0 70.8122L0 70.8005Z" fill="#FF50AA"/>
<path d="M82.0601 72.9809C108.353 86.2152 143.944 85.4806 171.547 75.0447C172.623 74.6366 173.793 74.3218 173.793 74.3218C173.793 74.3218 190.062 82.2041 211.49 83.6733C227.572 84.7693 245.853 83.3118 259.888 76.1641C260.227 73.8204 261.198 67.8504 261.783 64.7138C246.543 70.9287 230.028 73.2374 213.829 72.4329C193.676 71.4418 174.191 63.1164 174.191 63.1164C174.191 63.1164 173.033 63.4312 171.547 64.0026C143.979 74.4851 110.143 76.8521 83.639 62.4751C83.2998 65.3085 82.0601 72.9926 82.0601 72.9926V72.9809Z" fill="#FF50AA"/>
<path d="M39.2524 0C16.9946 0 4.98267 18.6329 4.98267 37.9538C4.98267 50.78 12.4214 57.5079 26.9246 57.5079C49.1824 57.5079 61.1944 38.9566 61.1944 19.624C61.1944 6.79787 53.7556 0 39.2524 0ZM41.3343 32.3803C35.8371 36.6129 30.3399 40.8455 24.8427 45.0665C25.0533 44.9033 24.6439 24.4164 24.8427 24.2648C30.3399 20.0321 35.8371 15.7995 41.3343 11.5785C41.1238 11.7418 41.5331 32.2287 41.3343 32.3803Z" fill="black"/>
</g>
<defs>
<clipPath id="clip0_2386_25364">
<rect width="283" height="84" fill="white"/>
</clipPath>
</defs>
</svg>
