<svg width="91" height="27" viewBox="0 0 91 27" fill="none" xmlns="http://www.w3.org/2000/svg">
<g id="_&#235;&#160;&#136;&#236;&#157;&#180;&#236;&#150;&#180;_1" clip-path="url(#clip0_2100_3043)">
<path id="Vector" d="M24.8497 5.2939L25.156 6.89415C26.6529 5.62313 28.2761 4.99146 29.7768 4.99146C31.9858 4.99146 33.8387 6.69124 33.8387 10.0181C33.8387 14.9949 31.0708 19.6387 25.6919 19.6387C24.8803 19.6387 23.9156 19.4856 23.0542 19.3325L21.6186 26.2541H16.4312L20.8452 5.29772H24.8574L24.8497 5.2939ZM23.8084 15.6726C24.2142 15.7759 24.62 15.8257 24.976 15.8257C27.4109 15.8257 28.5556 13.6703 28.5556 11.002C28.5556 9.73479 28.0732 9.07248 27.1352 9.07248C26.6261 9.07248 25.868 9.24859 25.0296 9.65822L23.8122 15.6726H23.8084Z" fill="black"/>
<path id="Vector_2" d="M46.53 18.8463C45.0561 19.2789 43.1304 19.6579 41.1473 19.6579C37.4415 19.6579 34.4209 18.4635 34.4209 14.1757C34.4209 9.45536 37.6444 4.98767 43.3563 4.98767C46.9358 4.98767 48.6088 6.89036 48.6088 8.99979C48.6088 12.4262 45.9174 13.6972 42.9466 13.6972C41.9321 13.6972 40.841 13.544 39.8495 13.2646C39.7997 13.5172 39.7729 13.7469 39.7729 13.9001C39.7729 15.1175 40.7875 15.8028 42.514 15.8028C44.1143 15.8028 45.5346 15.4467 46.9549 14.838L46.5223 18.8463H46.53ZM41.4268 10.9293C43.2529 10.9293 43.9918 10.2938 43.9918 9.30606C43.9918 8.79688 43.6625 8.34131 42.7476 8.34131C41.3502 8.34131 40.3855 9.53576 40.1596 10.8527C40.642 10.9025 41.0975 10.9293 41.4306 10.9293H41.4268Z" fill="black"/>
<path id="Vector_3" d="M53.4592 19.3286H48.3828L51.1507 5.29384H55.4155L55.6452 6.48828C57.2187 5.67667 58.9184 4.9646 60.7216 4.9646C63.3096 4.9646 64.5806 6.84432 64.0982 9.30595L62.0922 19.3324H56.989L58.8151 10.1176C58.9414 9.50886 58.8648 8.90015 57.9269 8.90015C57.2914 8.90015 56.4032 9.20642 55.3619 9.71176L53.4592 19.3324V19.3286Z" fill="black"/>
<path id="Vector_4" d="M76.9881 18.8463C75.518 19.2789 73.5885 19.6579 71.6092 19.6579C67.9034 19.6579 64.8828 18.4635 64.8828 14.1757C64.8828 9.45536 68.1063 4.98767 73.8182 4.98767C77.3977 4.98767 79.0707 6.89036 79.0707 8.99979C79.0707 12.4262 76.3794 13.6972 73.4124 13.6972C72.3979 13.6972 71.3068 13.544 70.3152 13.2646C70.2655 13.5172 70.2387 13.7469 70.2387 13.9001C70.2387 15.1175 71.2532 15.8028 72.9798 15.8028C74.58 15.8028 76.0004 15.4467 77.4207 14.838L76.9881 18.8463ZM71.8849 10.9293C73.711 10.9293 74.4499 10.2938 74.4499 9.30606C74.4499 8.79688 74.1206 8.34131 73.2057 8.34131C71.8083 8.34131 70.8436 9.53576 70.6177 10.8527C71.1001 10.9025 71.5556 10.9293 71.8849 10.9293Z" fill="black"/>
<path id="Vector_5" d="M90.0354 10.1903C88.5653 10.3932 87.0914 10.8488 85.4912 11.5341L83.9177 19.3248H78.8413L81.6092 5.29H86.3793L85.8702 7.98134C87.6963 5.95231 88.9673 5.24023 90.6671 5.24023H90.9963L90.0316 10.1903H90.0354Z" fill="black"/>
<path id="Vector_6" d="M11.2171 0.749634C3.93555 0.749634 0 6.86734 0 13.2109C0 17.4221 2.43483 19.6311 7.18199 19.6311C14.4674 19.6311 18.3991 13.5402 18.3991 7.19276C18.4029 2.98156 15.9642 0.749634 11.2171 0.749634ZM11.8985 11.381C10.0992 12.7707 8.29987 14.1604 6.50055 15.5462C6.56946 15.4926 6.43547 8.76621 6.50055 8.71644C8.29987 7.32675 10.0992 5.93706 11.8985 4.55119C11.8296 4.60479 11.9636 11.3312 11.8985 11.381Z" fill="black"/>
</g>
<defs>
<clipPath id="clip0_2100_3043">
<rect width="91" height="25.5007" fill="white" transform="translate(0 0.749634)"/>
</clipPath>
</defs>
</svg>
