<svg width="94" height="22" viewBox="0 0 94 22" fill="none" xmlns="http://www.w3.org/2000/svg">
<path d="M8.456 17.628C6.76 17.628 5.28 17.316 4.016 16.692C2.768 16.068 1.8 15.196 1.112 14.076C0.44 12.956 0.104 11.676 0.104 10.236C0.104 8.31599 0.544 6.58799 1.424 5.05199C2.32 3.51599 3.56 2.31599 5.144 1.45199C6.744 0.587991 8.56 0.155991 10.592 0.155991C12.288 0.155991 13.76 0.467991 15.008 1.09199C16.272 1.71599 17.24 2.58799 17.912 3.70799C18.6 4.82799 18.944 6.10799 18.944 7.54799C18.944 9.46799 18.496 11.196 17.6 12.732C16.72 14.268 15.48 15.468 13.88 16.332C12.296 17.196 10.488 17.628 8.456 17.628ZM8.864 13.692C9.92 13.692 10.848 13.428 11.648 12.9C12.448 12.372 13.064 11.668 13.496 10.788C13.928 9.89199 14.144 8.90799 14.144 7.83599C14.144 6.69999 13.792 5.79599 13.088 5.12399C12.4 4.43599 11.432 4.09199 10.184 4.09199C9.128 4.09199 8.2 4.35599 7.4 4.88399C6.6 5.41199 5.984 6.12399 5.552 7.01999C5.12 7.89999 4.904 8.87599 4.904 9.94799C4.904 11.084 5.248 11.996 5.936 12.684C6.64 13.356 7.616 13.692 8.864 13.692ZM29.6409 4.06799C30.6009 4.06799 31.4969 4.30799 32.3289 4.78799C33.1769 5.25199 33.8569 5.93199 34.3689 6.82799C34.8809 7.72399 35.1369 8.77199 35.1369 9.97199C35.1369 11.396 34.8169 12.684 34.1769 13.836C33.5529 14.972 32.6969 15.868 31.6089 16.524C30.5369 17.18 29.3609 17.508 28.0809 17.508C26.1929 17.508 24.8649 16.916 24.0969 15.732L22.8489 21.948H18.2889L21.8169 4.28399H26.1369L25.8729 5.50799C26.9129 4.54799 28.1689 4.06799 29.6409 4.06799ZM27.4329 13.836C28.3449 13.836 29.0889 13.5 29.6649 12.828C30.2409 12.156 30.5289 11.284 30.5289 10.212C30.5289 9.44399 30.3049 8.83599 29.8569 8.38799C29.4249 7.93999 28.8249 7.71599 28.0569 7.71599C27.1449 7.71599 26.4009 8.05199 25.8249 8.72399C25.2489 9.39599 24.9609 10.276 24.9609 11.364C24.9609 12.132 25.1769 12.74 25.6089 13.188C26.0569 13.62 26.6649 13.836 27.4329 13.836ZM50.3844 9.77999C50.3844 10.404 50.2964 11.116 50.1204 11.916H40.5684C40.7284 13.324 41.7124 14.028 43.5204 14.028C44.0964 14.028 44.6564 13.94 45.2004 13.764C45.7444 13.588 46.2324 13.324 46.6644 12.972L48.5604 15.828C47.0404 16.948 45.1924 17.508 43.0164 17.508C41.6404 17.508 40.4244 17.268 39.3684 16.788C38.3284 16.292 37.5204 15.604 36.9444 14.724C36.3844 13.828 36.1044 12.78 36.1044 11.58C36.1044 10.156 36.4324 8.87599 37.0884 7.73999C37.7604 6.58799 38.6884 5.69199 39.8724 5.05199C41.0724 4.39599 42.4404 4.06799 43.9764 4.06799C45.2724 4.06799 46.4004 4.30799 47.3604 4.78799C48.3364 5.25199 49.0804 5.91599 49.5924 6.77999C50.1204 7.64399 50.3844 8.64399 50.3844 9.77999ZM43.7604 7.30799C43.0244 7.30799 42.4084 7.50799 41.9124 7.90799C41.4164 8.29199 41.0564 8.82799 40.8324 9.51599H46.1844C46.2004 8.82799 45.9844 8.29199 45.5364 7.90799C45.0884 7.50799 44.4964 7.30799 43.7604 7.30799ZM61.4651 4.06799C62.8891 4.06799 64.0251 4.45199 64.8731 5.21999C65.7371 5.97199 66.1691 7.05999 66.1691 8.48399C66.1691 9.01199 66.1131 9.54799 66.0011 10.092L64.5611 17.292H60.0011L61.3451 10.524C61.4091 10.252 61.4411 9.96399 61.4411 9.65999C61.4411 8.50799 60.8411 7.93199 59.6411 7.93199C58.8411 7.93199 58.1851 8.17999 57.6731 8.67599C57.1611 9.15599 56.8011 9.88399 56.5931 10.86L55.2971 17.292H50.7371L53.3291 4.28399H57.6491L57.3851 5.62799C57.9451 5.09999 58.5771 4.70799 59.2811 4.45199C59.9851 4.19599 60.7131 4.06799 61.4651 4.06799ZM82.1075 9.77999C82.1075 10.404 82.0195 11.116 81.8435 11.916H72.2915C72.4515 13.324 73.4355 14.028 75.2435 14.028C75.8195 14.028 76.3795 13.94 76.9235 13.764C77.4675 13.588 77.9555 13.324 78.3875 12.972L80.2835 15.828C78.7635 16.948 76.9155 17.508 74.7395 17.508C73.3635 17.508 72.1475 17.268 71.0915 16.788C70.0515 16.292 69.2435 15.604 68.6675 14.724C68.1075 13.828 67.8275 12.78 67.8275 11.58C67.8275 10.156 68.1555 8.87599 68.8115 7.73999C69.4835 6.58799 70.4115 5.69199 71.5955 5.05199C72.7955 4.39599 74.1635 4.06799 75.6995 4.06799C76.9955 4.06799 78.1235 4.30799 79.0835 4.78799C80.0595 5.25199 80.8035 5.91599 81.3155 6.77999C81.8435 7.64399 82.1075 8.64399 82.1075 9.77999ZM75.4835 7.30799C74.7475 7.30799 74.1315 7.50799 73.6355 7.90799C73.1395 8.29199 72.7795 8.82799 72.5555 9.51599H77.9075C77.9235 8.82799 77.7075 8.29199 77.2595 7.90799C76.8115 7.50799 76.2195 7.30799 75.4835 7.30799ZM89.0842 5.72399C90.1722 4.61999 91.7402 4.06799 93.7882 4.06799L92.9962 8.17199C92.5962 8.12399 92.2522 8.09999 91.9642 8.09999C90.9402 8.09999 90.1162 8.34799 89.4922 8.84399C88.8842 9.32399 88.4762 10.092 88.2682 11.148L87.0202 17.292H82.4602L85.0522 4.28399H89.3722L89.0842 5.72399Z" fill="#1C1E22"/>
</svg>
