<svg width="24" height="24" viewBox="0 0 24 24" fill="none" xmlns="http://www.w3.org/2000/svg">
<g id="Clip path group">
<mask id="mask0_1208_21307" style="mask-type:luminance" maskUnits="userSpaceOnUse" x="0" y="0" width="24" height="24">
<g id="clip0_710_6233">
<path id="Vector" d="M24 0H0V24H24V0Z" fill="white"/>
</g>
</mask>
<g mask="url(#mask0_1208_21307)">
<g id="Group">
<path id="Vector_2" d="M23.52 12.273C23.52 11.422 23.4437 10.6039 23.3018 9.81836H12V14.4602H18.4582C18.18 15.9602 17.3346 17.2311 16.0637 18.082V21.093H19.9418C22.2109 19.0039 23.52 15.9274 23.52 12.273Z" fill="#4285F4"/>
<path id="Vector_3" d="M12 23.9998C15.24 23.9998 17.9564 22.9252 19.9418 21.0925L16.0636 18.0816C14.9891 18.8016 13.6145 19.227 12 19.227C8.87453 19.227 6.22913 17.1161 5.28545 14.2798H1.27637V17.3889C3.25097 21.3107 7.30913 23.9998 12 23.9998Z" fill="#34A853"/>
<path id="Vector_4" d="M5.2854 14.2799C5.0454 13.5599 4.90908 12.7908 4.90908 11.9999C4.90908 11.209 5.0454 10.4399 5.2854 9.71992V6.61084H1.27632C0.463679 8.23084 0 10.0636 0 11.9999C0 13.9362 0.463679 15.769 1.27632 17.389L5.2854 14.2799Z" fill="#FBBC04"/>
<path id="Vector_5" d="M12 4.77276C13.7618 4.77276 15.3436 5.37816 16.5873 6.56724L20.0291 3.1254C17.951 1.18908 15.2345 0 12 0C7.30913 0 3.25097 2.68908 1.27637 6.61092L5.28545 9.72C6.22913 6.88368 8.87453 4.77276 12 4.77276Z" fill="#E94235"/>
</g>
</g>
</g>
</svg>
