<svg width="20" height="20" viewBox="0 0 20 20" fill="none" xmlns="http://www.w3.org/2000/svg">
<g id="Icon">
<g id="Vector">
<path d="M2.989 11.4823C4.47186 12.9565 7.05794 14.9999 10.0002 14.9999C12.9424 14.9999 15.5279 12.9565 17.0108 11.4823C17.4019 11.0936 17.5981 10.8985 17.7226 10.5168C17.8115 10.2444 17.8115 9.75561 17.7226 9.48325C17.5981 9.10151 17.4019 8.90642 17.0108 8.51759C15.5279 7.0434 12.9424 5 10.0002 5C7.05794 5 4.47186 7.0434 2.989 8.51759C2.59761 8.90669 2.4019 9.10137 2.27733 9.48325C2.18848 9.75561 2.18848 10.2444 2.27733 10.5168C2.40191 10.8986 2.59761 11.0932 2.989 11.4823Z" stroke="#636A79" stroke-width="1.5" stroke-linecap="round" stroke-linejoin="round"/>
<path d="M8.33333 10C8.33333 10.9205 9.07953 11.6667 10 11.6667C10.9205 11.6667 11.6667 10.9205 11.6667 10C11.6667 9.07953 10.9205 8.33333 10 8.33333C9.07953 8.33333 8.33333 9.07953 8.33333 10Z" stroke="#636A79" stroke-width="1.5" stroke-linecap="round" stroke-linejoin="round"/>
</g>
</g>
</svg>
