<svg width="24" height="24" viewBox="0 0 24 24" fill="none" xmlns="http://www.w3.org/2000/svg">
<path d="M5.50708 2.91632H5.51624M22.0008 7.49792H22.01M15.5866 2H15.5958M22.0008 18.4938H22.01M22.0008 2L19.9483 2.68724C19.364 2.88186 18.8655 3.27335 18.5379 3.79482C18.2103 4.31628 18.074 4.93533 18.1523 5.54616C18.2439 6.33419 17.63 7.03976 16.8236 7.03976H16.4754C15.6874 7.03976 15.0093 7.58955 14.8627 8.35926L14.6703 9.33056M22.0008 12.0795L21.2495 11.7771C20.4614 11.4656 19.5818 11.9604 19.4351 12.7942C19.3343 13.4357 18.7754 13.9122 18.1248 13.9122H17.4192M11.9213 2L12.2237 2.75138C12.5353 3.53942 12.0404 4.41908 11.2066 4.5657C10.5652 4.65733 10.0887 5.22545 10.0887 5.87603V6.5816" stroke="#2898FF" stroke-width="1.5" stroke-linecap="round" stroke-linejoin="round"/>
<path d="M12.0739 11.8302C14.276 14.0323 15.3029 16.5881 14.3559 17.5351C13.4088 18.4821 10.853 17.4552 8.65094 15.2532C6.44884 13.0511 5.42196 10.4953 6.36897 9.54823C7.31599 8.60122 9.87179 9.6281 12.0739 11.8302Z" stroke="#2898FF" stroke-width="1.5" stroke-linecap="round" stroke-linejoin="round"/>
<path d="M6.16673 9.90137L1.83099 22.1099L14.0395 17.7856" stroke="#2898FF" stroke-width="1.5" stroke-linecap="round" stroke-linejoin="round"/>
</svg>
