<svg width="21" height="21" viewBox="0 0 21 21" fill="none" xmlns="http://www.w3.org/2000/svg">
<g id="Icon">
<path id="Vector" d="M10.4999 7.1666L3.83325 13.8333V17.1666L7.16659 17.1666L13.8332 10.4999M10.4999 7.1666L12.8904 4.77606L12.8919 4.77464C13.221 4.44557 13.3858 4.28074 13.5758 4.21901C13.7431 4.16463 13.9235 4.16463 14.0908 4.21901C14.2807 4.2807 14.4453 4.44534 14.7739 4.77394L16.2238 6.22377C16.5538 6.55378 16.7189 6.71887 16.7807 6.90914C16.8351 7.07651 16.835 7.2568 16.7807 7.42417C16.7189 7.61431 16.554 7.77914 16.2245 8.10868L16.2238 8.10939L13.8332 10.4999M10.4999 7.1666L13.8332 10.4999" stroke="white" stroke-width="1.5" stroke-linecap="round" stroke-linejoin="round"/>
</g>
</svg>
