<svg width="24" height="24" viewBox="0 0 24 24" fill="none" xmlns="http://www.w3.org/2000/svg">
<circle cx="11.9407" cy="11.9999" r="9.8676" stroke="#636A79" stroke-width="1.5"/>
<path d="M8.6297 8.93506L8.6297 10.2676" stroke="#636A79" stroke-width="2.20733" stroke-linecap="round"/>
<path d="M15.2516 8.93506L15.2516 10.2676" stroke="#636A79" stroke-width="2.20733" stroke-linecap="round"/>
<path d="M7.82654 15.2222C8.62377 16.3869 10.1838 17.1781 11.9778 17.1781C12.5618 17.1781 13.1209 17.0943 13.637 16.9411" stroke="#636A79" stroke-width="1.5" stroke-linecap="round"/>
<path d="M17.2654 16.4375C17.2654 17.4251 16.5259 18.1107 15.5527 18.1107C14.5794 18.1107 13.8399 17.4251 13.8399 16.4375C13.8399 15.9748 14.02 15.5245 14.3585 14.9366C14.5597 14.5872 15.1164 13.6618 15.5509 12.9422C15.9824 13.6602 16.5406 14.5899 16.7515 14.9445C17.0929 15.5186 17.2654 15.971 17.2654 16.4375Z" stroke="#636A79" stroke-width="1.3"/>
</svg>
