<svg width="24" height="24" viewBox="0 0 24 24" fill="none" xmlns="http://www.w3.org/2000/svg">
<path d="M6.68066 12.5545C6.68066 12.3426 6.76484 12.1393 6.91468 11.9895C7.06452 11.8397 7.26775 11.7555 7.47965 11.7555H11.2008V8.03434C11.2008 7.82243 11.285 7.61921 11.4348 7.46937C11.5846 7.31953 11.7879 7.23535 11.9998 7.23535C12.2117 7.23535 12.4149 7.31953 12.5647 7.46937C12.7146 7.61921 12.7988 7.82243 12.7988 8.03434V11.7555H16.5199C16.7318 11.7555 16.935 11.8397 17.0849 11.9895C17.2347 12.1393 17.3189 12.3426 17.3189 12.5545C17.3189 12.7664 17.2347 12.9696 17.0849 13.1194C16.935 13.2693 16.7318 13.3535 16.5199 13.3535H12.7988V17.0746C12.7988 17.2865 12.7146 17.4897 12.5647 17.6396C12.4149 17.7894 12.2117 17.8736 11.9998 17.8736C11.7879 17.8736 11.5846 17.7894 11.4348 17.6396C11.285 17.4897 11.2008 17.2865 11.2008 17.0746V13.3535H7.47965C7.26775 13.3535 7.06452 13.2693 6.91468 13.1194C6.76484 12.9696 6.68066 12.7664 6.68066 12.5545Z" fill="#494F5A"/>
<path fill-rule="evenodd" clip-rule="evenodd" d="M7.01086 3.78594C10.3266 3.41836 13.6728 3.41836 16.9886 3.78594C18.9349 4.00326 20.5063 5.53625 20.7342 7.49323C21.1284 10.8564 21.1284 14.2537 20.7342 17.6169C20.5052 19.5739 18.9339 21.1058 16.9886 21.3242C13.6728 21.6918 10.3266 21.6918 7.01086 21.3242C5.06453 21.1058 3.4932 19.5739 3.26522 17.6169C2.87188 14.2538 2.87188 10.8563 3.26522 7.49323C3.4932 5.53625 5.0656 4.00326 7.01086 3.78594ZM16.8118 5.37326C13.6135 5.01876 10.3859 5.01876 7.18771 5.37326C6.59565 5.43894 6.04303 5.7023 5.61911 6.1208C5.1952 6.5393 4.92476 7.0885 4.85147 7.67966C4.47259 10.9193 4.47259 14.192 4.85147 17.4315C4.92498 18.0225 5.19552 18.5715 5.61941 18.9898C6.04331 19.408 6.59581 19.6713 7.18771 19.7369C10.3591 20.0906 13.6403 20.0906 16.8118 19.7369C17.4035 19.671 17.9557 19.4077 18.3794 18.9895C18.8031 18.5712 19.0735 18.0224 19.1469 17.4315C19.5258 14.192 19.5258 10.9192 19.1469 7.67966C19.0732 7.08904 18.8028 6.54046 18.3791 6.12241C17.9554 5.70435 17.4033 5.4412 16.8118 5.37539" fill="#494F5A"/>
</svg>
